<mxfile host="app.diagrams.net" agent="Mozilla/5.0 (Windows NT 10.0; Win64; x64) AppleWebKit/537.36 (KHTML, like Gecko) Chrome/133.0.0.0 Safari/537.36 Edg/133.0.0.0" version="26.1.0">
  <diagram name="PÃ¡gina-1" id="e67qjZ8yQnk1TIpRtcMu">
    <mxGraphModel dx="1773" dy="477" grid="1" gridSize="10" guides="1" tooltips="1" connect="1" arrows="1" fold="1" page="1" pageScale="1" pageWidth="827" pageHeight="1169" math="0" shadow="0">
      <root>
        <mxCell id="0" />
        <mxCell id="1" parent="0" />
        <mxCell id="e0EfrONk99Dpcsddr8e6-1" value="PRESTAMO" style="swimlane;fontStyle=1;align=center;verticalAlign=middle;childLayout=stackLayout;horizontal=1;startSize=29;horizontalStack=0;resizeParent=1;resizeParentMax=0;resizeLast=0;collapsible=0;marginBottom=0;html=1;whiteSpace=wrap;" vertex="1" parent="1">
          <mxGeometry x="279" y="100" width="240" height="214" as="geometry" />
        </mxCell>
        <mxCell id="e0EfrONk99Dpcsddr8e6-3" value="LIBRO" style="text;html=1;strokeColor=none;fillColor=none;align=left;verticalAlign=middle;spacingLeft=4;spacingRight=4;overflow=hidden;rotatable=0;points=[[0,0.5],[1,0.5]];portConstraint=eastwest;whiteSpace=wrap;" vertex="1" parent="e0EfrONk99Dpcsddr8e6-1">
          <mxGeometry y="29" width="240" height="25" as="geometry" />
        </mxCell>
        <mxCell id="e0EfrONk99Dpcsddr8e6-5" value="USUARIO" style="text;html=1;strokeColor=none;fillColor=none;align=left;verticalAlign=middle;spacingLeft=4;spacingRight=4;overflow=hidden;rotatable=0;points=[[0,0.5],[1,0.5]];portConstraint=eastwest;whiteSpace=wrap;" vertex="1" parent="e0EfrONk99Dpcsddr8e6-1">
          <mxGeometry y="54" width="240" height="25" as="geometry" />
        </mxCell>
        <mxCell id="e0EfrONk99Dpcsddr8e6-11" value="+FECHAPRESTAMO()" style="text;html=1;strokeColor=none;fillColor=none;align=left;verticalAlign=middle;spacingLeft=4;spacingRight=4;overflow=hidden;rotatable=0;points=[[0,0.5],[1,0.5]];portConstraint=eastwest;whiteSpace=wrap;" vertex="1" parent="e0EfrONk99Dpcsddr8e6-1">
          <mxGeometry y="79" width="240" height="25" as="geometry" />
        </mxCell>
        <mxCell id="e0EfrONk99Dpcsddr8e6-56" value="+FECHADEVOLUCION" style="text;html=1;strokeColor=none;fillColor=none;align=left;verticalAlign=middle;spacingLeft=4;spacingRight=4;overflow=hidden;rotatable=0;points=[[0,0.5],[1,0.5]];portConstraint=eastwest;whiteSpace=wrap;" vertex="1" parent="e0EfrONk99Dpcsddr8e6-1">
          <mxGeometry y="104" width="240" height="25" as="geometry" />
        </mxCell>
        <mxCell id="e0EfrONk99Dpcsddr8e6-47" value="" style="line;strokeWidth=2;html=1;" vertex="1" parent="e0EfrONk99Dpcsddr8e6-1">
          <mxGeometry y="129" width="240" height="10" as="geometry" />
        </mxCell>
        <mxCell id="e0EfrONk99Dpcsddr8e6-57" value="+INICIARPRESTAMO(USUARIO,LIBRO)" style="text;html=1;strokeColor=none;fillColor=none;align=left;verticalAlign=middle;spacingLeft=4;spacingRight=4;overflow=hidden;rotatable=0;points=[[0,0.5],[1,0.5]];portConstraint=eastwest;whiteSpace=wrap;" vertex="1" parent="e0EfrONk99Dpcsddr8e6-1">
          <mxGeometry y="139" width="240" height="25" as="geometry" />
        </mxCell>
        <mxCell id="e0EfrONk99Dpcsddr8e6-58" value="+FINALIZARRPRESTAMO()" style="text;html=1;strokeColor=none;fillColor=none;align=left;verticalAlign=middle;spacingLeft=4;spacingRight=4;overflow=hidden;rotatable=0;points=[[0,0.5],[1,0.5]];portConstraint=eastwest;whiteSpace=wrap;" vertex="1" parent="e0EfrONk99Dpcsddr8e6-1">
          <mxGeometry y="164" width="240" height="25" as="geometry" />
        </mxCell>
        <mxCell id="e0EfrONk99Dpcsddr8e6-6" value="+CONSULTAPRESTAMO()" style="text;html=1;strokeColor=none;fillColor=none;align=left;verticalAlign=middle;spacingLeft=4;spacingRight=4;overflow=hidden;rotatable=0;points=[[0,0.5],[1,0.5]];portConstraint=eastwest;whiteSpace=wrap;" vertex="1" parent="e0EfrONk99Dpcsddr8e6-1">
          <mxGeometry y="189" width="240" height="25" as="geometry" />
        </mxCell>
        <mxCell id="e0EfrONk99Dpcsddr8e6-18" value="USUARIO" style="swimlane;fontStyle=1;align=center;verticalAlign=middle;childLayout=stackLayout;horizontal=1;startSize=29;horizontalStack=0;resizeParent=1;resizeParentMax=0;resizeLast=0;collapsible=0;marginBottom=0;html=1;whiteSpace=wrap;" vertex="1" parent="1">
          <mxGeometry x="-30" y="130" width="150" height="295" as="geometry" />
        </mxCell>
        <mxCell id="e0EfrONk99Dpcsddr8e6-63" value="-ID" style="text;html=1;strokeColor=none;fillColor=none;align=left;verticalAlign=middle;spacingLeft=4;spacingRight=4;overflow=hidden;rotatable=0;points=[[0,0.5],[1,0.5]];portConstraint=eastwest;whiteSpace=wrap;" vertex="1" parent="e0EfrONk99Dpcsddr8e6-18">
          <mxGeometry y="29" width="150" height="25" as="geometry" />
        </mxCell>
        <mxCell id="e0EfrONk99Dpcsddr8e6-19" value="+NOMBRE" style="text;html=1;strokeColor=none;fillColor=none;align=left;verticalAlign=middle;spacingLeft=4;spacingRight=4;overflow=hidden;rotatable=0;points=[[0,0.5],[1,0.5]];portConstraint=eastwest;whiteSpace=wrap;" vertex="1" parent="e0EfrONk99Dpcsddr8e6-18">
          <mxGeometry y="54" width="150" height="25" as="geometry" />
        </mxCell>
        <mxCell id="e0EfrONk99Dpcsddr8e6-20" value="+TELEFONO" style="text;html=1;strokeColor=none;fillColor=none;align=left;verticalAlign=middle;spacingLeft=4;spacingRight=4;overflow=hidden;rotatable=0;points=[[0,0.5],[1,0.5]];portConstraint=eastwest;whiteSpace=wrap;" vertex="1" parent="e0EfrONk99Dpcsddr8e6-18">
          <mxGeometry y="79" width="150" height="25" as="geometry" />
        </mxCell>
        <mxCell id="e0EfrONk99Dpcsddr8e6-34" value="+TIPO" style="text;html=1;strokeColor=none;fillColor=none;align=left;verticalAlign=middle;spacingLeft=4;spacingRight=4;overflow=hidden;rotatable=0;points=[[0,0.5],[1,0.5]];portConstraint=eastwest;whiteSpace=wrap;" vertex="1" parent="e0EfrONk99Dpcsddr8e6-18">
          <mxGeometry y="104" width="150" height="25" as="geometry" />
        </mxCell>
        <mxCell id="e0EfrONk99Dpcsddr8e6-52" value="+PRESTAMO" style="text;html=1;strokeColor=none;fillColor=none;align=left;verticalAlign=middle;spacingLeft=4;spacingRight=4;overflow=hidden;rotatable=0;points=[[0,0.5],[1,0.5]];portConstraint=eastwest;whiteSpace=wrap;" vertex="1" parent="e0EfrONk99Dpcsddr8e6-18">
          <mxGeometry y="129" width="150" height="25" as="geometry" />
        </mxCell>
        <mxCell id="e0EfrONk99Dpcsddr8e6-21" value="+EMAIL" style="text;html=1;strokeColor=none;fillColor=none;align=left;verticalAlign=middle;spacingLeft=4;spacingRight=4;overflow=hidden;rotatable=0;points=[[0,0.5],[1,0.5]];portConstraint=eastwest;whiteSpace=wrap;" vertex="1" parent="e0EfrONk99Dpcsddr8e6-18">
          <mxGeometry y="154" width="150" height="25" as="geometry" />
        </mxCell>
        <mxCell id="e0EfrONk99Dpcsddr8e6-49" value="" style="line;strokeWidth=2;html=1;" vertex="1" parent="e0EfrONk99Dpcsddr8e6-18">
          <mxGeometry y="179" width="150" height="16" as="geometry" />
        </mxCell>
        <mxCell id="e0EfrONk99Dpcsddr8e6-64" value="+REGISTRO.USUARIO()" style="text;html=1;strokeColor=none;fillColor=none;align=left;verticalAlign=middle;spacingLeft=4;spacingRight=4;overflow=hidden;rotatable=0;points=[[0,0.5],[1,0.5]];portConstraint=eastwest;whiteSpace=wrap;" vertex="1" parent="e0EfrONk99Dpcsddr8e6-18">
          <mxGeometry y="195" width="150" height="25" as="geometry" />
        </mxCell>
        <mxCell id="e0EfrONk99Dpcsddr8e6-54" value="+SOLICITAR_LIBRO" style="text;html=1;strokeColor=none;fillColor=none;align=left;verticalAlign=middle;spacingLeft=4;spacingRight=4;overflow=hidden;rotatable=0;points=[[0,0.5],[1,0.5]];portConstraint=eastwest;whiteSpace=wrap;" vertex="1" parent="e0EfrONk99Dpcsddr8e6-18">
          <mxGeometry y="220" width="150" height="25" as="geometry" />
        </mxCell>
        <mxCell id="e0EfrONk99Dpcsddr8e6-55" value="+CONSULTAPRESTAMO()" style="text;html=1;strokeColor=none;fillColor=none;align=left;verticalAlign=middle;spacingLeft=4;spacingRight=4;overflow=hidden;rotatable=0;points=[[0,0.5],[1,0.5]];portConstraint=eastwest;whiteSpace=wrap;" vertex="1" parent="e0EfrONk99Dpcsddr8e6-18">
          <mxGeometry y="245" width="150" height="25" as="geometry" />
        </mxCell>
        <mxCell id="e0EfrONk99Dpcsddr8e6-33" value="+DEVOLVERPRESTAMO()" style="text;html=1;strokeColor=none;fillColor=none;align=left;verticalAlign=middle;spacingLeft=4;spacingRight=4;overflow=hidden;rotatable=0;points=[[0,0.5],[1,0.5]];portConstraint=eastwest;whiteSpace=wrap;" vertex="1" parent="e0EfrONk99Dpcsddr8e6-18">
          <mxGeometry y="270" width="150" height="25" as="geometry" />
        </mxCell>
        <mxCell id="e0EfrONk99Dpcsddr8e6-24" value="LIBRO" style="swimlane;fontStyle=1;align=center;verticalAlign=middle;childLayout=stackLayout;horizontal=1;startSize=29;horizontalStack=0;resizeParent=1;resizeParentMax=0;resizeLast=0;collapsible=0;marginBottom=0;html=1;whiteSpace=wrap;" vertex="1" parent="1">
          <mxGeometry x="650" y="120" width="200" height="214" as="geometry" />
        </mxCell>
        <mxCell id="e0EfrONk99Dpcsddr8e6-25" value="+TITULO()" style="text;html=1;strokeColor=none;fillColor=none;align=left;verticalAlign=middle;spacingLeft=4;spacingRight=4;overflow=hidden;rotatable=0;points=[[0,0.5],[1,0.5]];portConstraint=eastwest;whiteSpace=wrap;" vertex="1" parent="e0EfrONk99Dpcsddr8e6-24">
          <mxGeometry y="29" width="200" height="25" as="geometry" />
        </mxCell>
        <mxCell id="e0EfrONk99Dpcsddr8e6-26" value="+AUTOR()" style="text;html=1;strokeColor=none;fillColor=none;align=left;verticalAlign=middle;spacingLeft=4;spacingRight=4;overflow=hidden;rotatable=0;points=[[0,0.5],[1,0.5]];portConstraint=eastwest;whiteSpace=wrap;" vertex="1" parent="e0EfrONk99Dpcsddr8e6-24">
          <mxGeometry y="54" width="200" height="25" as="geometry" />
        </mxCell>
        <mxCell id="e0EfrONk99Dpcsddr8e6-28" value="+GENERO" style="text;html=1;strokeColor=none;fillColor=none;align=left;verticalAlign=middle;spacingLeft=4;spacingRight=4;overflow=hidden;rotatable=0;points=[[0,0.5],[1,0.5]];portConstraint=eastwest;whiteSpace=wrap;" vertex="1" parent="e0EfrONk99Dpcsddr8e6-24">
          <mxGeometry y="79" width="200" height="25" as="geometry" />
        </mxCell>
        <mxCell id="e0EfrONk99Dpcsddr8e6-29" value="+ISBN" style="text;html=1;strokeColor=none;fillColor=none;align=left;verticalAlign=middle;spacingLeft=4;spacingRight=4;overflow=hidden;rotatable=0;points=[[0,0.5],[1,0.5]];portConstraint=eastwest;whiteSpace=wrap;" vertex="1" parent="e0EfrONk99Dpcsddr8e6-24">
          <mxGeometry y="104" width="200" height="25" as="geometry" />
        </mxCell>
        <mxCell id="e0EfrONk99Dpcsddr8e6-61" value="+ESTADO" style="text;html=1;strokeColor=none;fillColor=none;align=left;verticalAlign=middle;spacingLeft=4;spacingRight=4;overflow=hidden;rotatable=0;points=[[0,0.5],[1,0.5]];portConstraint=eastwest;whiteSpace=wrap;" vertex="1" parent="e0EfrONk99Dpcsddr8e6-24">
          <mxGeometry y="129" width="200" height="25" as="geometry" />
        </mxCell>
        <mxCell id="e0EfrONk99Dpcsddr8e6-60" value="" style="line;strokeWidth=2;html=1;" vertex="1" parent="e0EfrONk99Dpcsddr8e6-24">
          <mxGeometry y="154" width="200" height="10" as="geometry" />
        </mxCell>
        <mxCell id="e0EfrONk99Dpcsddr8e6-62" value="+CONSULTAINFORMACION()" style="text;html=1;strokeColor=none;fillColor=none;align=left;verticalAlign=middle;spacingLeft=4;spacingRight=4;overflow=hidden;rotatable=0;points=[[0,0.5],[1,0.5]];portConstraint=eastwest;whiteSpace=wrap;" vertex="1" parent="e0EfrONk99Dpcsddr8e6-24">
          <mxGeometry y="164" width="200" height="25" as="geometry" />
        </mxCell>
        <mxCell id="e0EfrONk99Dpcsddr8e6-59" value="+ACTUALIZARESTADO()" style="text;html=1;strokeColor=none;fillColor=none;align=left;verticalAlign=middle;spacingLeft=4;spacingRight=4;overflow=hidden;rotatable=0;points=[[0,0.5],[1,0.5]];portConstraint=eastwest;whiteSpace=wrap;" vertex="1" parent="e0EfrONk99Dpcsddr8e6-24">
          <mxGeometry y="189" width="200" height="25" as="geometry" />
        </mxCell>
        <mxCell id="e0EfrONk99Dpcsddr8e6-40" value="Relation" style="endArrow=open;html=1;endSize=12;startArrow=diamondThin;startSize=14;startFill=0;edgeStyle=orthogonalEdgeStyle;rounded=0;entryX=0;entryY=0.5;entryDx=0;entryDy=0;" edge="1" parent="1" target="e0EfrONk99Dpcsddr8e6-5">
          <mxGeometry relative="1" as="geometry">
            <mxPoint x="100" y="140" as="sourcePoint" />
            <mxPoint x="260" y="140" as="targetPoint" />
          </mxGeometry>
        </mxCell>
        <mxCell id="e0EfrONk99Dpcsddr8e6-41" value="0..n" style="edgeLabel;resizable=0;html=1;align=left;verticalAlign=top;" connectable="0" vertex="1" parent="e0EfrONk99Dpcsddr8e6-40">
          <mxGeometry x="-1" relative="1" as="geometry" />
        </mxCell>
        <mxCell id="e0EfrONk99Dpcsddr8e6-42" value="1" style="edgeLabel;resizable=0;html=1;align=right;verticalAlign=top;" connectable="0" vertex="1" parent="e0EfrONk99Dpcsddr8e6-40">
          <mxGeometry x="1" relative="1" as="geometry" />
        </mxCell>
        <mxCell id="e0EfrONk99Dpcsddr8e6-43" value="Relation" style="endArrow=open;html=1;endSize=12;startArrow=diamondThin;startSize=14;startFill=0;edgeStyle=orthogonalEdgeStyle;rounded=0;exitX=0.075;exitY=-0.04;exitDx=0;exitDy=0;exitPerimeter=0;" edge="1" parent="1" source="e0EfrONk99Dpcsddr8e6-25" target="e0EfrONk99Dpcsddr8e6-3">
          <mxGeometry relative="1" as="geometry">
            <mxPoint x="450" y="240" as="sourcePoint" />
            <mxPoint x="610" y="240" as="targetPoint" />
          </mxGeometry>
        </mxCell>
        <mxCell id="e0EfrONk99Dpcsddr8e6-44" value="0..n" style="edgeLabel;resizable=0;html=1;align=left;verticalAlign=top;" connectable="0" vertex="1" parent="e0EfrONk99Dpcsddr8e6-43">
          <mxGeometry x="-1" relative="1" as="geometry" />
        </mxCell>
        <mxCell id="e0EfrONk99Dpcsddr8e6-45" value="1" style="edgeLabel;resizable=0;html=1;align=right;verticalAlign=top;" connectable="0" vertex="1" parent="e0EfrONk99Dpcsddr8e6-43">
          <mxGeometry x="1" relative="1" as="geometry" />
        </mxCell>
      </root>
    </mxGraphModel>
  </diagram>
</mxfile>
